# xmcd
# Track frame offsets:
# 150
# 18777
# 30928
# 45318
# 61455
# 75422
# 91113
# 100321
# 115785
# 132604
# 149771
# 168814
# 186424
# 202867
#
# Disc length: 2981 seconds
# Revision: 0
# Processed by: cddbd v1.5.1PL0 Copyright (c) Steve Scherf et al.
# Submitted via: VisiTrax 2.9.10.228 - For more info visit www.synapsa.com
#
DISCID=ad0ba30e
DTITLE=Det Lysner - - det går sgu nok
DYEAR=2004
DGENRE=
TTITLE0=Det lysner - Da far var dreng
TTITLE1=Det lysner - Sommer
TTITLE2=Det lysner - Så' der bal
TTITLE3=Det lysner - Øl i tusind år
TTITLE4=Det lysner - Kære frk. Jensen
TTITLE5=Det lysner - Du er dejlig
TTITLE6=Det lysner - Her hos dig
TTITLE7=Det lysner - Søndag morgen
TTITLE8=Det lysner - Elsk mig om natten
TTITLE9=Det lysner - Det går s'gu nok
TTITLE10=Det lysner - Velkommen til Danmark
TTITLE11=Det lysner - Langsomt selvmord
TTITLE12=Det lysner - Det sidste farvel
TTITLE13=Det lysner - Farvel og tobak
EXTD=Pladeselskabet DAGSLYS KACD2
EXTT0=
EXTT1=
EXTT2=
EXTT3=
EXTT4=
EXTT5=
EXTT6=
EXTT7=
EXTT8=
EXTT9=
EXTT10=
EXTT11=
EXTT12=
EXTT13=
PLAYORDER=
